<svg width="216" height="86" viewBox="0 0 216 86" fill="none" xmlns="http://www.w3.org/2000/svg">
<path d="M119 8.25C122.866 8.25 126 11.384 126 15.25C126 19.116 122.866 22.25 119 22.25H183C186.866 22.25 190 25.384 190 29.25C190 33.116 186.866 36.25 183 36.25H205C208.866 36.25 212 39.384 212 43.25C212 47.116 208.866 50.25 205 50.25H186C182.134 50.25 179 53.384 179 57.25C179 61.116 182.134 64.25 186 64.25H192C195.866 64.25 199 67.384 199 71.25C199 75.116 195.866 78.25 192 78.25H140C139.485 78.25 138.983 78.1944 138.5 78.0889C138.017 78.1944 137.515 78.25 137 78.25H46C42.134 78.25 39 75.116 39 71.25C39 67.384 42.134 64.25 46 64.25H7C3.13401 64.25 0 61.116 0 57.25C0 53.384 3.13401 50.25 7 50.25H47C50.866 50.25 54 47.116 54 43.25C54 39.384 50.866 36.25 47 36.25H22C18.134 36.25 15 33.116 15 29.25C15 25.384 18.134 22.25 22 22.25H62C58.134 22.25 55 19.116 55 15.25C55 11.384 58.134 8.25 62 8.25H119ZM209 64.25C212.866 64.25 216 67.384 216 71.25C216 75.116 212.866 78.25 209 78.25C205.134 78.25 202 75.116 202 71.25C202 67.384 205.134 64.25 209 64.25Z" fill="#F9F0FF"/>
<path fill-rule="evenodd" clip-rule="evenodd" d="M75 84.25C62.8497 84.25 53 74.6241 53 62.75C53 50.8759 62.8497 41.25 75 41.25C75.5167 41.25 76.0292 41.2674 76.537 41.3017C76.1842 39.3378 76 37.3154 76 35.25C76 16.4723 91.2223 1.25 110 1.25C124.991 1.25 137.716 10.952 142.239 24.4195C143.31 24.3075 144.398 24.25 145.5 24.25C162.345 24.25 176 37.6815 176 54.25C176 69.9906 163.675 82.9773 148 84.2282V84.25H91.5078M86.996 84.25H80.0314Z" fill="white"/>
<path d="M75 85.5C75.6904 85.5 76.25 84.9404 76.25 84.25C76.25 83.5596 75.6904 83 75 83V84.25V85.5ZM76.537 41.3017L76.4529 42.5488L78.0504 42.6566L77.7673 41.0806L76.537 41.3017ZM142.239 24.4195L141.054 24.8174L141.372 25.7669L142.369 25.6627L142.239 24.4195ZM148 84.2282L147.901 82.9821L146.75 83.074V84.2282H148ZM148 84.25V85.5H149.25V84.25H148ZM91.5078 83C90.8175 83 90.2578 83.5596 90.2578 84.25C90.2578 84.9404 90.8175 85.5 91.5078 85.5V84.25V83ZM86.996 85.5C87.6863 85.5 88.246 84.9404 88.246 84.25C88.246 83.5596 87.6863 83 86.996 83V84.25V85.5ZM80.0314 83C79.341 83 78.7814 83.5596 78.7814 84.25C78.7814 84.9404 79.341 85.5 80.0314 85.5V84.25V83ZM75 84.25V83C63.5128 83 54.25 73.9068 54.25 62.75H53H51.75C51.75 75.3414 62.1866 85.5 75 85.5V84.25ZM53 62.75H54.25C54.25 51.5932 63.5128 42.5 75 42.5V41.25V40C62.1866 40 51.75 50.1586 51.75 62.75H53ZM75 41.25V42.5C75.4886 42.5 75.9731 42.5165 76.4529 42.5488L76.537 41.3017L76.6211 40.0545C76.0853 40.0184 75.5448 40 75 40V41.25ZM76.537 41.3017L77.7673 41.0806C77.4275 39.1894 77.25 37.241 77.25 35.25H76H74.75C74.75 37.3899 74.9408 39.4862 75.3067 41.5227L76.537 41.3017ZM76 35.25H77.25C77.25 17.1627 91.9127 2.5 110 2.5V1.25V0C90.532 0 74.75 15.782 74.75 35.25H76ZM110 1.25V2.5C124.438 2.5 136.697 11.8436 141.054 24.8174L142.239 24.4195L143.424 24.0216C138.735 10.0604 125.544 0 110 0V1.25ZM142.239 24.4195L142.369 25.6627C143.397 25.5552 144.442 25.5 145.5 25.5V24.25V23C144.355 23 143.223 23.0597 142.109 23.1763L142.239 24.4195ZM145.5 24.25V25.5C161.674 25.5 174.75 38.3912 174.75 54.25H176H177.25C177.25 36.9717 163.015 23 145.5 23V24.25ZM176 54.25H174.75C174.75 69.3205 162.945 81.7817 147.901 82.9821L148 84.2282L148.099 85.4742C164.406 84.173 177.25 70.6608 177.25 54.25H176ZM148 84.2282H146.75V84.25H148H149.25V84.2282H148ZM148 84.25V83H91.5078V84.25V85.5H148V84.25ZM86.996 84.25V83H80.0314V84.25V85.5H86.996V84.25Z" fill="#994ED2"/>
<path fill-rule="evenodd" clip-rule="evenodd" d="M99.6123 8.59263C99.6123 40.8157 128.633 67.368 166 70.9529C161.317 76.7111 154.086 80.6175 145.847 81.2313V81.25H78.7431C70.6013 81.25 57 77.8197 57 62.7983C57 47.777 67.5742 44.3467 78.7431 44.3467C79.218 44.3467 79.6891 44.3616 80.1559 44.391C79.8316 42.7056 79.7746 40.9684 79.6623 39.1974C78.9038 27.2342 84.1229 12.157 99.6304 7.25C99.618 7.69733 99.6123 8.14443 99.6123 8.59263Z" fill="#F9F0FF"/>
<path d="M120 13.25C126.509 14.9726 131.648 20.0629 133.44 26.5432" stroke="#994ED2" stroke-width="2.5" stroke-linecap="round"/>
<path d="M91 45.75C91 49.3399 94.134 52.25 98 52.25C101.866 52.25 105 49.3399 105 45.75" stroke="#994ED2" stroke-width="2.5" stroke-linecap="round"/>
<path d="M120 45.75C120 49.3399 123.134 52.25 127 52.25C130.866 52.25 134 49.3399 134 45.75" stroke="#994ED2" stroke-width="2.5" stroke-linecap="round"/>
<path d="M105 64.25H119.5" stroke="#994ED2" stroke-width="2.5" stroke-linecap="round"/>
<path d="M65.5675 21.3457L58.9122 29.5225H65.7277V31.25H56.3683V29.6182L63.0236 21.5537H56.88V19.8262H65.5675V21.3457ZM52.1564 6.63184L43.004 17.874H52.3761V20.25H39.506V18.0059L48.6583 6.91798H40.2101V4.542H52.1564V6.63184Z" fill="#994ED2"/>
</svg>
